<svg width="124" height="46" viewBox="0 0 124 46" fill="none" xmlns="http://www.w3.org/2000/svg">
<path d="M27.0729 36.25C27.0729 34.835 26.8229 33.464 26.3229 32.14C25.8229 30.82 25.0959 29.64 24.1509 28.609C23.2009 27.569 22.0449 26.714 20.6819 26.046C19.3149 25.382 17.7799 24.976 16.0719 24.828C16.7177 25.1558 17.3081 25.5826 17.8219 26.093C18.3692 26.6245 18.8473 27.2229 19.2449 27.874C19.6535 28.5312 19.9837 29.234 20.2289 29.968C20.463 30.6574 20.5846 31.38 20.5889 32.108C20.5889 33.195 20.3929 34.148 20.0099 34.968C19.6537 35.7666 19.1318 36.4803 18.4789 37.062C17.8395 37.6268 17.0964 38.0619 16.2909 38.343C15.4661 38.6243 14.6004 38.7669 13.7289 38.765C12.7369 38.765 11.6589 38.507 10.4949 37.984C9.31613 37.4466 8.22143 36.7413 7.2449 35.89C6.26914 35.0459 5.43077 34.0551 4.7599 32.953C4.0919 31.859 3.7599 30.757 3.7599 29.64C3.7599 28.539 3.9789 27.53 4.4159 26.624C4.85608 25.7157 5.49729 24.9196 6.2909 24.296C7.1039 23.664 8.0609 23.167 9.1659 22.812C10.2799 22.449 11.5019 22.265 12.8379 22.265C14.2329 22.265 15.6119 22.46 16.9779 22.843C18.331 23.2256 19.6325 23.7713 20.8539 24.468C22.0729 25.168 23.2049 25.999 24.2599 26.968C25.3099 27.929 26.2479 28.976 27.0729 30.108V16.344H1.8849C1.63787 16.3457 1.39879 16.2567 1.2129 16.094C1.00739 15.916 0.833291 15.7047 0.697902 15.469C0.555872 15.2197 0.450458 14.9513 0.384902 14.672C0.314902 14.402 0.274902 14.168 0.274902 13.969H34.9159C35.1429 13.969 35.3579 14.055 35.5569 14.219C35.7519 14.387 35.9319 14.602 36.0879 14.859C36.2449 15.109 36.3619 15.372 36.4479 15.641C36.5299 15.915 36.5729 16.149 36.5729 16.344H30.1349V44.172C29.5698 44.1704 29.0093 44.0699 28.4789 43.875C27.926 43.672 27.4397 43.3208 27.0729 42.86V36.25ZM17.6509 29.812C17.6509 29.386 17.5919 28.933 17.4789 28.452C17.3589 27.9538 17.1807 27.4715 16.9479 27.015C16.711 26.5537 16.4111 26.1277 16.0569 25.749C15.6841 25.3534 15.2452 25.0258 14.7599 24.781C13.6429 24.812 12.6119 24.996 11.6659 25.328C10.7169 25.652 9.8769 26.121 9.1509 26.734C8.43518 27.3346 7.85478 28.0799 7.4479 28.921C7.0409 29.777 6.8379 30.73 6.8379 31.781C6.8379 33.23 7.2519 34.351 8.0879 35.141C8.9199 35.933 9.9949 36.328 11.3069 36.328C12.2449 36.328 13.0919 36.168 13.8539 35.843C14.6078 35.5336 15.289 35.0704 15.8539 34.483C16.4311 33.8923 16.8829 33.1909 17.1819 32.421C17.5002 31.5884 17.6593 30.7034 17.6509 29.812ZM18.1179 2.968C16.7859 2.968 15.6449 3.124 14.6959 3.437C13.7389 3.749 12.7889 4.137 11.8519 4.593C11.4299 4.18655 11.0527 3.73597 10.7269 3.249C10.3749 2.719 10.1409 2.214 10.0239 1.734C11.7039 0.746001 13.5629 0.249001 15.6019 0.249001C17.2579 0.249001 18.8119 0.589 20.2579 1.265C21.7079 1.945 23.0079 2.855 24.1639 3.999C25.3221 5.14867 26.3161 6.45263 27.1179 7.874C27.9231 9.27618 28.5378 10.7794 28.9459 12.344C28.6879 12.511 28.3759 12.594 28.0079 12.594C27.6389 11.2458 27.1256 9.94122 26.4769 8.703C25.8519 7.527 25.1249 6.511 24.2889 5.656C23.4808 4.82794 22.5277 4.15514 21.4769 3.671C20.4202 3.19865 19.2753 2.95891 18.1179 2.968Z" fill="black"/>
<path d="M40.4142 34.203C39.5681 33.445 38.8599 32.546 38.3212 31.546C37.7782 30.539 37.5082 29.492 37.5082 28.406C37.5082 27.73 37.6332 27.039 37.8832 26.328C38.1497 25.5945 38.5647 24.9238 39.1022 24.358C39.6642 23.765 40.3832 23.277 41.2582 22.89C42.1412 22.507 43.1962 22.312 44.4142 22.312C45.8602 22.312 47.1882 22.617 48.3992 23.218C49.5637 23.7806 50.6212 24.542 51.5242 25.468V16.343H35.3362C35.0782 16.343 34.8482 16.261 34.6492 16.093C34.4451 15.9176 34.2755 15.7056 34.1492 15.468C34.0073 15.2149 33.892 14.9478 33.8052 14.671C33.7298 14.4439 33.6877 14.2071 33.6802 13.968H58.2582C58.5162 13.968 58.7462 14.054 58.9462 14.218C59.1412 14.386 59.3092 14.601 59.4462 14.858C59.5902 15.108 59.7032 15.371 59.7892 15.64C59.8712 15.914 59.9142 16.148 59.9142 16.343H54.6022V27.296C54.6022 28.664 54.4302 29.929 54.0862 31.093C53.7432 32.261 53.2262 33.265 52.5392 34.109C51.8522 34.9513 50.9812 35.6249 49.9932 36.078C48.9692 36.558 47.7632 36.796 46.3682 36.796C45.7945 36.7895 45.2233 36.7215 44.6642 36.593L53.8682 44.983C53.8132 45.21 53.7112 45.383 53.5552 45.499C53.3992 45.613 53.2462 45.671 53.1022 45.671L40.4142 34.203ZM44.1962 34.374C45.4462 34.374 46.5242 34.171 47.4302 33.765C48.3442 33.351 49.1062 32.792 49.7112 32.093C50.3289 31.3896 50.7922 30.5645 51.0712 29.671C51.3712 28.746 51.5242 27.773 51.5242 26.749C50.8566 26.1325 50.0768 25.6501 49.2272 25.328C48.4013 25.0009 47.5215 24.8313 46.6332 24.828C45.7782 24.828 44.9812 24.96 44.2432 25.218C43.518 25.4578 42.8482 25.8403 42.2732 26.343C41.7093 26.8457 41.2526 27.4569 40.9302 28.14C40.6062 28.828 40.4462 29.617 40.4462 30.5C40.4462 31.574 40.7352 32.492 41.3212 33.25C41.9032 34 42.8602 34.374 44.1962 34.374Z" fill="black"/>
<path d="M66.525 16.343V44.171C65.9546 44.1705 65.3887 44.07 64.853 43.874C64.322 43.679 63.857 43.339 63.463 42.859V16.343H58.259C58.001 16.343 57.771 16.261 57.572 16.093C57.368 15.9176 57.1984 15.7056 57.072 15.468C56.9301 15.2149 56.8148 14.9478 56.728 14.671C56.6526 14.4439 56.6105 14.2071 56.603 13.968H71.29C71.548 13.968 71.779 14.054 71.978 14.218C72.173 14.386 72.341 14.601 72.478 14.858C72.622 15.108 72.736 15.371 72.822 15.64C72.915 15.914 72.962 16.148 72.962 16.343H66.525ZM54.509 2.968C53.177 2.968 52.036 3.124 51.087 3.437C50.13 3.749 49.181 4.137 48.243 4.593C47.821 4.18655 47.4439 3.73597 47.118 3.249C46.767 2.719 46.533 2.214 46.415 1.734C48.095 0.746001 49.955 0.249001 51.993 0.249001C53.642 0.249001 55.189 0.589 56.634 1.265C58.084 1.945 59.376 2.855 60.524 3.999C61.6884 5.14715 62.6879 6.45124 63.494 7.874C64.3055 9.2749 64.9253 10.7783 65.337 12.344C65.076 12.511 64.763 12.594 64.4 12.594C64.029 11.2463 63.5154 9.94193 62.868 8.703C62.243 7.527 61.509 6.511 60.665 5.656C59.8639 4.8266 58.9154 4.15348 57.868 3.671C56.8116 3.19879 55.6661 2.95905 54.509 2.968Z" fill="black"/>
<path d="M103.973 16.343V44.171C103.408 44.1694 102.847 44.0689 102.317 43.874C101.764 43.671 101.278 43.3198 100.911 42.859V26.874L88.9399 35.61C88.3623 35.3814 87.8519 35.0106 87.4559 34.532C87.0499 34.032 86.7729 33.61 86.6279 33.266L92.4249 29.047C91.7999 27.571 90.8859 26.434 89.6909 25.641C88.5029 24.841 87.1669 24.438 85.6909 24.438C84.6377 24.4352 83.5934 24.6313 82.6129 25.016C81.6329 25.403 80.7729 25.977 80.0349 26.735C79.2919 27.485 78.6949 28.422 78.2379 29.547C77.7879 30.665 77.5659 31.977 77.5659 33.485C77.5659 34.758 77.7299 35.907 78.0659 36.938C78.4118 37.9675 78.9236 38.9335 79.5809 39.798C80.2459 40.672 81.0739 41.5 82.0659 42.282C83.0659 43.063 84.2059 43.836 85.4879 44.594C85.4344 44.8914 85.2654 45.1556 85.0179 45.329C84.0179 44.817 82.9099 44.145 81.6909 43.313C80.4358 42.4393 79.2826 41.4276 78.2529 40.297C77.1691 39.1026 76.2592 37.7614 75.5499 36.313C74.8199 34.825 74.4559 33.157 74.4559 31.313C74.4559 29.773 74.6989 28.407 75.1909 27.219C75.6909 26.024 76.3669 25.024 77.2219 24.219C78.0602 23.4157 79.0548 22.7934 80.1439 22.391C81.2369 21.9758 82.3967 21.7639 83.5659 21.766C86.0109 21.766 88.0419 22.391 89.6599 23.641C91.2727 24.8763 92.5466 26.4997 93.3629 28.36L100.91 22.829V16.344H71.7229C71.4649 16.344 71.2349 16.262 71.0359 16.094C70.8318 15.9186 70.6623 15.7066 70.5359 15.469C70.394 15.2159 70.2787 14.9488 70.1919 14.672C70.1165 14.4449 70.0744 14.2081 70.0669 13.969H108.754C109.004 13.969 109.227 14.055 109.426 14.219C109.622 14.387 109.793 14.602 109.942 14.859C110.086 15.109 110.2 15.372 110.286 15.641C110.368 15.915 110.411 16.149 110.411 16.344L103.973 16.343Z" fill="black"/>
<path d="M117.44 16.343V44.171C116.87 44.1704 116.304 44.0698 115.769 43.874C115.238 43.679 114.773 43.339 114.379 42.859V16.343H109.175C108.917 16.343 108.687 16.261 108.488 16.093C108.284 15.9176 108.114 15.7056 107.988 15.468C107.846 15.2149 107.731 14.9478 107.644 14.671C107.569 14.4439 107.526 14.2071 107.519 13.968H114.503C114.441 10.585 113.835 7.948 112.691 6.062C111.542 4.167 109.788 3.218 107.425 3.218C106.55 3.218 105.753 3.355 105.035 3.624C104.344 3.8743 103.711 4.2625 103.175 4.765C102.655 5.245 102.265 5.808 102.003 6.453C101.73 7.10584 101.592 7.80729 101.597 8.515C101.597 9.245 101.73 9.933 101.987 10.578C102.237 11.214 102.53 11.746 102.863 12.171C102.78 12.401 102.597 12.542 102.316 12.593C101.33 11.8362 100.475 10.9232 99.7839 9.89C99.0579 8.828 98.6909 7.714 98.6909 6.546C98.6909 5.64 98.8709 4.828 99.2209 4.109C99.566 3.39592 100.056 2.76248 100.659 2.249C101.276 1.72881 101.987 1.33134 102.753 1.078C103.558 0.805439 104.403 0.667917 105.253 0.670999C106.652 0.670999 108.03 1.058 109.393 1.828C110.757 2.589 111.995 3.589 113.113 4.828C114.238 6.058 115.179 7.476 115.941 9.078C116.711 10.683 117.183 12.312 117.363 13.968H122.206C122.464 13.968 122.695 14.054 122.894 14.218C123.089 14.386 123.257 14.601 123.394 14.858C123.538 15.108 123.652 15.371 123.738 15.64C123.831 15.914 123.878 16.148 123.878 16.343H117.44Z" fill="black"/>
</svg>
